<svg width="20" height="16" viewBox="0 0 20 16" fill="none" xmlns="http://www.w3.org/2000/svg">
  <path d="M4.76477 0.976074H7.95123V9.87306C7.95123 13.8533 6.06296 15.2581 2.87649 15.2581C2.16839 15.2581 1.10623 15.141 0.516144 14.9069L0.870196 12.3314C1.34227 12.5656 1.93235 12.6826 2.52244 12.6826C3.82063 12.6826 4.76477 12.0973 4.76477 9.87306V0.976074ZM10.7836 11.7461C11.6098 12.2144 13.026 12.6826 14.3242 12.6826C15.8584 12.6826 16.5665 12.0973 16.5665 11.1608C16.5665 10.2243 15.8584 9.75599 14.2062 9.17066C11.8458 8.3512 10.3116 7.06348 10.3116 4.9563C10.3116 2.49793 12.3179 0.741943 15.7404 0.741943C17.3926 0.741943 18.5728 1.09314 19.3989 1.44434L18.6908 4.01978C18.1007 3.78565 17.1566 3.31739 15.7404 3.31739C14.3242 3.31739 13.6161 3.90271 13.6161 4.72217C13.6161 5.6587 14.4422 6.00989 16.2124 6.71229C18.6908 7.64881 19.871 8.93653 19.871 10.9266C19.871 13.268 17.9827 15.2581 14.0881 15.2581C12.4359 15.2581 10.9017 14.7898 10.0755 14.4386L10.7836 11.7461Z" fill="#F1DD3F"/>
</svg>