<svg width="33" height="20" viewBox="0 0 33 20" fill="none" xmlns="http://www.w3.org/2000/svg">
  <path fill-rule="evenodd" clip-rule="evenodd" d="M2.39082 1.64113C1.96256 1.64113 1.61538 1.97962 1.61538 2.39717V17.2157C1.61538 17.6333 1.96256 17.9718 2.39082 17.9718H29.9963C30.4245 17.9718 30.7717 17.6333 30.7717 17.2157V2.39717C30.7717 1.97962 30.4245 1.64113 29.9963 1.64113H2.39082ZM0.0645142 2.39717C0.0645142 1.14451 1.10604 0.129028 2.39082 0.129028H29.9963C31.2811 0.129028 32.3226 1.14451 32.3226 2.39717V17.2157C32.3226 18.4684 31.2811 19.4839 29.9963 19.4839H2.39082C1.10604 19.4839 0.0645142 18.4684 0.0645142 17.2157V2.39717Z" fill="white"/>
  <path d="M4.71712 14.9476V4.66532H7.81886L10.9206 8.44556L14.0223 4.66532H17.1241V14.9476H14.0223V9.0504L10.9206 12.8306L7.81886 9.0504V14.9476H4.71712ZM24.103 14.9476L19.4504 9.95766H22.5521V4.66532H25.6538V9.95766H28.7556L24.103 14.9476Z" fill="white"/>
</svg>